<?xml version="1.0" standalone="no"?>
<!DOCTYPE svg PUBLIC "-//W3C//DTD SVG 20010904//EN"
 "http://www.w3.org/TR/2001/REC-SVG-20010904/DTD/svg10.dtd">
<svg version="1.0" xmlns="http://www.w3.org/2000/svg"
 width="256.000000pt" height="256.000000pt" viewBox="0 0 256.000000 256.000000"
 preserveAspectRatio="xMidYMid meet">
<metadata>
Created by potrace 1.14, written by Peter Selinger 2001-2017
</metadata>
<g transform="translate(0.000000,256.000000) scale(0.100000,-0.100000)"
fill="#000000" stroke="none">
<path d="M0 1280 l0 -1280 1280 0 1280 0 0 1280 0 1280 -1280 0 -1280 0 0
-1280z m1330 605 c35 -18 60 -62 60 -106 0 -24 -10 -41 -40 -70 l-40 -38 0
-126 c0 -155 -9 -180 -95 -260 -63 -59 -65 -62 -65 -109 0 -67 28 -110 86
-132 43 -17 47 -16 92 2 35 14 52 30 67 57 19 36 19 39 3 51 -26 19 -22 49 11
80 21 20 35 26 50 21 19 -6 21 -14 21 -74 0 -90 -28 -145 -95 -186 -135 -84
-305 12 -305 173 0 70 22 114 82 165 73 61 78 76 78 221 l0 124 -35 35 c-53
53 -46 129 17 167 39 24 69 25 108 5z m-175 -210 l0 -30 -200 -3 c-226 -3
-225 -2 -225 -79 l0 -43 230 0 c204 0 231 -2 237 -16 3 -9 2 -24 -4 -33 -9
-14 -41 -16 -237 -19 l-226 -2 0 -246 c0 -150 4 -253 10 -265 10 -18 27 -19
535 -19 463 0 525 2 539 16 14 13 16 51 16 265 l0 249 -226 2 c-196 3 -228 5
-237 19 -6 9 -7 24 -4 33 6 14 33 16 237 16 l230 0 0 43 c0 77 1 76 -225 79
l-200 3 0 30 0 30 203 3 c228 3 252 -3 278 -63 21 -50 21 -680 0 -730 -28 -66
-16 -65 -606 -65 -590 0 -578 -1 -606 65 -18 44 -21 673 -3 724 7 18 26 41 43
52 28 17 49 19 236 17 l205 -3 0 -30z m-340 -71 c18 -18 16 -33 -7 -47 -35
-22 -66 21 -36 51 16 16 23 15 43 -4z m95 1 c20 -25 8 -50 -25 -50 -21 0 -31
5 -33 18 -4 21 14 47 33 47 7 0 18 -7 25 -15z m88 3 c30 -30 -1 -73 -36 -51
-23 14 -25 29 -7 47 20 19 27 20 43 4z"/>
<path d="M1256 1817 c-36 -26 4 -84 42 -61 24 16 27 45 6 61 -10 7 -21 13 -24
13 -3 0 -14 -6 -24 -13z"/>
</g>
</svg>
